<?xml version="1.0" standalone="no"?>
<!DOCTYPE svg PUBLIC "-//W3C//DTD SVG 20010904//EN"
 "http://www.w3.org/TR/2001/REC-SVG-20010904/DTD/svg10.dtd">
<svg version="1.0" xmlns="http://www.w3.org/2000/svg"
 width="50.000000pt" height="50.000000pt" viewBox="0 0 50.000000 50.000000"
 preserveAspectRatio="xMidYMid meet">

<g transform="translate(0.000000,50.000000) scale(0.100000,-0.100000)"
fill="#000000" stroke="none">
<path d="M175 464 c-81 -42 -113 -114 -94 -206 11 -49 83 -160 138 -212 l31
-30 31 30 c55 52 127 163 138 212 12 55 1 113 -27 151 -46 63 -151 90 -217 55z
m155 -27 c106 -71 94 -202 -30 -337 l-50 -55 -50 55 c-124 135 -136 266 -30
337 45 31 115 31 160 0z"/>
<path d="M196 358 c-36 -51 -1 -138 54 -138 33 0 70 44 70 82 0 52 -24 78 -70
78 -29 0 -43 -6 -54 -22z m96 -23 c22 -49 -21 -113 -59 -89 -27 17 -39 59 -25
89 9 19 19 25 42 25 23 0 33 -6 42 -25z"/>
</g>
</svg>
